<?xml version="1.0" standalone="no"?>
<!DOCTYPE svg PUBLIC "-//W3C//DTD SVG 20010904//EN"
 "http://www.w3.org/TR/2001/REC-SVG-20010904/DTD/svg10.dtd">
<svg version="1.0" xmlns="http://www.w3.org/2000/svg"
 width="562.000000pt" height="562.000000pt" viewBox="0 0 562.000000 562.000000"
 preserveAspectRatio="xMidYMid meet">
<metadata>
Created by potrace 1.11, written by Peter Selinger 2001-2013
</metadata>
<g transform="translate(0.000000,562.000000) scale(0.100000,-0.100000)"
fill="#000000" stroke="none">
<path d="M227 5503 c-9 -65 -19 -163 -22 -218 -3 -55 -8 -116 -11 -135 -8 -54
9 -68 88 -72 57 -2 71 1 88 18 12 11 21 29 21 40 1 10 7 120 15 244 8 124 14
228 14 233 0 4 -40 7 -88 7 l-88 0 -17 -117z"/>
<path d="M4356 5604 c-3 -9 -6 -102 -6 -207 0 -106 -5 -268 -11 -362 -5 -93
-14 -244 -18 -335 -9 -178 -21 -225 -64 -235 -103 -23 -119 -25 -139 -14 -14
7 -65 11 -135 10 -62 -1 -139 3 -171 9 -31 5 -137 14 -234 18 -98 5 -181 12
-185 15 -3 4 -12 59 -20 124 -13 117 -38 192 -80 238 -23 26 -103 65 -148 72
-35 6 -38 10 -47 68 -3 18 -10 20 -61 17 -94 -6 -106 15 -108 181 0 62 -5 118
-11 124 -17 20 -64 15 -93 -10 -33 -28 -44 -79 -45 -208 0 -53 -3 -98 -6 -101
-3 -4 -22 0 -41 9 -72 30 -167 -16 -207 -100 -8 -18 -27 -39 -41 -47 -14 -7
-25 -22 -25 -33 0 -10 -10 -32 -21 -49 -12 -16 -27 -49 -35 -71 -7 -25 -13
-33 -13 -21 -1 30 26 119 54 177 21 43 22 51 10 74 -8 14 -20 30 -27 34 -7 5
-18 28 -24 51 l-10 43 -55 -2 c-29 -1 -71 -5 -92 -8 -30 -6 -42 -3 -58 11 -27
25 -65 108 -92 205 l-22 79 -47 0 c-94 0 -123 -34 -114 -134 3 -34 8 -110 11
-169 4 -60 8 -114 11 -121 2 -6 -7 -22 -21 -34 -25 -22 -25 -24 -25 -171 0
-130 -2 -150 -17 -155 -9 -4 -143 0 -297 8 -538 29 -752 39 -926 42 -96 2
-218 8 -270 14 -52 5 -159 13 -237 16 l-143 7 0 -372 c0 -290 3 -371 13 -372
6 0 21 -2 32 -4 11 -1 83 -6 160 -9 548 -25 771 -36 887 -44 l87 -7 -75 -77
-74 -77 7 -48 c5 -41 47 -119 96 -178 4 -5 22 -32 40 -59 52 -80 73 -91 180
-91 82 0 99 4 157 32 43 21 68 28 75 22 7 -7 5 -13 -6 -19 -9 -5 -15 -20 -14
-32 5 -42 27 -113 37 -119 6 -4 2 -12 -11 -18 -11 -7 -21 -20 -21 -30 0 -23
-93 -71 -137 -71 -28 0 -36 6 -53 40 -11 21 -20 46 -20 54 0 26 -23 66 -37 66
-8 0 -31 9 -53 20 -49 25 -53 25 -44 -2 6 -19 5 -21 -8 -11 -8 7 -18 10 -21 7
-3 -4 -3 10 0 30 3 20 3 36 1 36 -7 0 -68 -124 -68 -137 0 -5 16 -24 35 -43
19 -19 35 -38 35 -43 0 -11 32 -40 113 -104 88 -69 186 -90 285 -64 48 13 119
48 128 62 10 17 26 9 21 -11 -7 -27 12 -25 22 3 8 21 9 20 15 -11 9 -37 51
-92 72 -92 8 0 14 -4 14 -10 0 -5 15 -10 33 -10 38 0 77 -10 77 -19 0 -7 -140
-5 -216 4 -28 3 -68 15 -88 26 -38 20 -66 25 -66 10 0 -22 248 -156 353 -190
33 -11 37 -16 37 -46 l0 -33 93 3 c142 5 595 97 669 136 9 5 19 27 23 51 20
125 47 216 72 239 l25 24 -7 -65 c-4 -36 -13 -86 -20 -112 -8 -26 -17 -79 -21
-117 -3 -39 -12 -75 -18 -80 -6 -5 -38 -16 -71 -24 -33 -9 -100 -27 -150 -41
-124 -36 -371 -77 -483 -81 -52 -2 -96 -6 -99 -9 -3 -2 4 -10 16 -17 14 -9 19
-20 15 -35 -14 -55 85 -56 356 -4 190 36 334 78 403 117 4 3 5 -47 1 -110 l-7
-114 24 -6 c14 -4 34 -4 45 -1 19 5 22 18 33 118 6 62 11 123 11 137 0 19 10
30 46 49 33 18 48 21 51 13 3 -9 26 -2 73 22 67 34 100 43 100 28 0 -16 -65
-62 -140 -98 -77 -38 -79 -40 -89 -84 -5 -25 -10 -89 -11 -141 0 -52 -3 -97
-6 -99 -7 -8 -125 19 -156 35 -27 14 -28 17 -28 90 0 74 -1 76 -22 70 -189
-56 -473 -115 -569 -117 -19 0 -28 -3 -21 -6 22 -9 13 -54 -18 -85 -27 -27
-30 -35 -30 -97 0 -51 -5 -74 -19 -92 -30 -39 -60 -105 -67 -147 -4 -27 -17
-51 -41 -74 -42 -40 -74 -139 -72 -218 2 -65 -10 -148 -22 -156 -5 -3 -9 -25
-9 -49 0 -51 -8 -75 -24 -75 -19 0 -69 -57 -61 -70 11 -17 106 -2 131 22 26
23 38 10 25 -26 -8 -20 -20 -27 -71 -37 -33 -6 -60 -17 -60 -23 0 -6 14 -26
31 -44 28 -30 29 -33 15 -54 -9 -12 -16 -34 -16 -49 0 -23 5 -28 36 -34 29 -5
40 -2 56 15 21 22 23 39 12 82 -5 23 -2 29 20 39 14 7 26 15 26 19 0 4 12 19
26 33 l26 26 -27 7 c-17 4 -25 12 -23 23 2 12 17 17 57 19 30 2 59 -2 64 -7
15 -15 54 -14 64 2 4 8 23 24 41 37 17 13 32 30 32 37 0 16 1 17 -48 -7 -22
-11 -59 -20 -81 -20 -38 0 -40 2 -39 30 1 28 4 30 39 30 70 0 259 106 259 146
0 12 -8 10 -42 -7 -62 -32 -144 -36 -201 -11 l-46 20 18 59 c26 84 52 133 71
133 10 0 35 -13 56 -28 45 -33 154 -72 198 -72 17 0 45 8 61 18 23 15 44 18
93 14 60 -4 62 -6 70 -36 7 -28 12 -31 50 -34 28 -2 54 3 75 16 18 10 39 18
47 17 8 -1 20 -3 26 -3 6 -1 18 -17 25 -34 7 -18 37 -69 66 -112 28 -44 50
-83 47 -88 -3 -4 -14 -8 -25 -8 -10 0 -19 -3 -19 -6 0 -19 65 -93 100 -114 56
-33 110 -79 110 -94 0 -6 18 -30 41 -53 34 -36 38 -44 28 -61 -9 -15 -8 -26 4
-53 9 -19 18 -44 20 -57 2 -13 10 -28 18 -33 14 -9 6 -13 -23 -10 -35 4 -33
-43 4 -52 11 -3 17 -10 14 -15 -8 -14 23 -52 38 -46 12 5 12 10 0 32 -13 26
-13 27 11 30 30 4 33 18 5 27 -24 8 -26 38 -4 60 9 9 29 40 43 68 38 75 56 74
59 -6 1 -54 30 -159 32 -117 0 11 3 10 11 -4 8 -13 8 -20 0 -26 -9 -5 -9 -28
-1 -95 l11 -88 -43 -41 c-24 -23 -58 -65 -76 -94 l-32 -52 22 -10 c92 -37 221
-55 239 -34 6 8 29 14 50 14 26 0 46 7 60 21 20 20 21 29 16 103 -5 87 -35
180 -74 232 -12 16 -33 59 -47 95 -25 67 -61 139 -89 180 -11 15 -17 43 -17
77 0 60 -15 103 -54 149 -15 17 -29 45 -31 62 -2 17 -6 40 -9 51 -3 11 -9 30
-12 42 l-6 21 38 -22 c31 -18 48 -22 84 -18 55 7 166 42 197 62 12 8 37 15 56
15 27 0 40 8 66 40 29 36 32 45 26 82 -4 22 -8 77 -9 122 l-1 80 -120 14
c-108 12 -148 22 -253 69 -8 3 -10 0 -6 -11 4 -11 -2 -19 -17 -25 -31 -11 -76
-57 -96 -96 l-16 -30 -14 40 c-8 22 -16 61 -18 87 -5 58 -67 273 -93 319 -10
19 -29 40 -43 46 -21 11 -26 10 -37 -6 -13 -18 -52 -19 -52 0 0 4 20 27 45 50
41 39 85 113 85 143 0 7 18 42 40 79 23 37 40 75 38 84 -2 11 5 19 17 21 46 8
198 58 310 103 288 115 288 115 312 156 34 59 45 102 29 124 -12 17 -14 16
-24 -20 -15 -49 -18 -51 -127 -94 -49 -19 -121 -47 -159 -62 -78 -30 -306
-108 -350 -119 -22 -5 -27 -4 -23 7 3 8 0 20 -6 26 -6 6 -9 13 -6 15 2 2 51
18 109 34 123 36 317 107 412 151 74 34 118 74 118 108 0 12 5 25 10 28 17 10
0 78 -23 98 -20 17 -39 19 -227 16 -113 -2 -211 0 -217 4 -13 8 -116 3 -131
-7 -5 -3 -24 2 -42 11 -18 9 -49 16 -68 17 -30 1 -38 -4 -55 -32 -43 -74 -113
-352 -88 -352 11 0 25 19 27 35 0 6 2 16 2 23 2 14 38 17 46 3 4 -5 24 -1 46
10 57 28 64 25 56 -18 -3 -21 -6 -46 -6 -55 0 -11 -45 -39 -142 -88 -162 -81
-160 -82 -134 28 9 37 25 107 36 155 12 49 25 96 30 105 5 10 19 49 31 87 12
39 26 75 31 82 5 7 7 21 3 33 -8 25 18 70 40 70 17 0 111 96 130 134 8 15 17
44 21 64 4 20 14 54 22 76 l15 38 151 -6 c83 -4 180 -12 215 -17 54 -8 66 -7
82 6 32 30 84 33 336 20 215 -10 252 -10 281 3 17 8 32 21 32 28 0 24 37 15
56 -13 16 -25 16 -35 6 -108 -7 -45 -12 -93 -12 -108 0 -37 46 -81 103 -96 26
-8 47 -16 47 -19 0 -3 -10 -16 -22 -29 l-21 -23 24 -45 c13 -24 47 -73 75
-108 67 -83 280 -366 372 -492 95 -132 158 -216 177 -237 8 -10 15 -20 15 -23
0 -3 5 -11 10 -18 6 -7 42 -56 80 -109 38 -54 74 -103 80 -110 10 -12 108
-148 198 -275 20 -29 40 -53 45 -53 4 0 7 848 7 1885 l0 1885 -535 0 c-421 0
-535 -3 -535 -12 0 -11 -9 -75 -25 -178 -2 -14 -8 -63 -14 -110 -6 -47 -16
-110 -21 -141 -6 -30 -11 -93 -11 -140 -2 -67 -3 -76 -9 -44 -5 29 -8 10 -9
-67 0 -65 -5 -108 -11 -108 -5 0 -11 17 -11 38 -5 152 7 683 17 735 5 27 5 27
-44 27 -36 0 -52 -4 -56 -16z m427 -442 c34 -35 34 -72 1 -111 -32 -39 -71
-41 -113 -5 -49 41 -39 95 25 129 41 21 57 19 87 -13z m235 -63 c3 -32 -1 -38
-30 -52 -31 -15 -33 -15 -53 6 -14 15 -19 32 -16 54 3 31 4 31 50 30 45 -2 46
-3 49 -38z m236 25 c38 -14 6 -100 -32 -88 -63 21 -72 35 -46 72 15 22 47 28
78 16z m-2494 -153 c-5 -11 -22 -29 -36 -40 -15 -12 -25 -24 -22 -27 3 -2 -6
-18 -20 -34 -18 -20 -36 -30 -54 -30 -16 0 -28 2 -28 4 0 3 14 25 30 50 40 58
85 96 116 96 21 0 23 -3 14 -19z m-400 -31 c0 -5 -5 -10 -11 -10 -5 0 -7 5 -4
10 3 6 8 10 11 10 2 0 4 -4 4 -10z m900 -191 c0 -11 -4 -17 -10 -14 -5 3 -10
13 -10 21 0 8 5 14 10 14 6 0 10 -9 10 -21z m1182 -94 c0 -20 -3 -39 -6 -42
-3 -4 -6 15 -6 42 0 27 3 46 6 42 3 -3 6 -22 6 -42z m-2025 -52 c7 -20 -43
-78 -70 -81 -36 -4 -36 25 0 67 26 29 63 37 70 14z m2036 -45 c4 -12 9 -19 13
-15 11 11 43 -38 52 -79 8 -38 -7 -230 -28 -366 -5 -37 -10 -87 -10 -112 l0
-46 -42 0 -41 0 6 268 c4 147 10 291 13 320 7 54 27 70 37 30z m708 -132 c8
-8 -8 -211 -20 -251 -16 -58 -27 -73 -43 -57 -9 9 -9 12 0 12 7 0 12 5 12 10
0 6 -3 9 -7 9 -23 -4 -35 3 -29 16 3 10 -3 17 -19 21 -16 4 -26 14 -27 28 0
11 -2 26 -2 33 -1 6 -11 22 -22 35 -33 35 -44 63 -44 107 l0 41 98 0 c54 0
101 -2 103 -4z m-3171 -202 c15 -38 12 -54 -10 -54 -14 0 -20 7 -20 21 0 11
-4 17 -10 14 -5 -3 -10 3 -10 14 0 17 11 28 33 30 4 1 12 -11 17 -25z m-1088
-52 c-4 -11 0 -13 16 -7 12 3 22 2 22 -3 0 -16 -29 -35 -45 -28 -8 3 -15 0
-15 -6 0 -7 -5 -6 -15 2 -20 16 -19 49 1 72 16 17 18 17 29 1 7 -10 10 -23 7
-31z m1158 -137 c0 -12 -19 -12 -23 0 -4 9 -1 12 9 8 7 -3 14 -7 14 -8z m2788
-30 c-3 -3 -9 2 -12 12 -6 14 -5 15 5 6 7 -7 10 -15 7 -18z m65 -62 c-7 -2
-21 -2 -30 0 -10 3 -4 5 12 5 17 0 24 -2 18 -5z m-2996 -55 c-3 -8 -6 -5 -6 6
-1 11 2 17 5 13 3 -3 4 -12 1 -19z m-183 -66 c55 -4 122 -6 148 -6 l48 0 20
-53 c11 -30 20 -56 20 -58 0 -11 76 -163 94 -187 11 -15 18 -29 15 -32 -2 -2
-62 -25 -134 -50 -71 -26 -139 -51 -150 -56 -47 -20 -60 -20 -90 6 -17 14 -42
32 -57 40 -41 21 -36 54 17 110 48 51 63 102 51 169 -9 44 -30 65 -66 65 -20
0 -29 6 -34 23 -9 34 -7 49 5 41 6 -3 57 -9 113 -12z m3146 -467 c0 -17 -4
-18 -51 -8 -28 5 -30 7 -14 14 34 13 65 10 65 -6z m-2925 -21 c74 -4 135 -11
135 -16 0 -4 -8 -27 -19 -51 -35 -80 -50 -122 -53 -147 -3 -22 -8 -25 -52 -28
-59 -4 -103 5 -90 18 6 6 31 6 64 1 56 -9 78 -3 65 19 -4 7 -10 8 -14 3 -3 -6
-33 -7 -68 -3 -64 6 -113 36 -113 68 0 8 -14 39 -31 69 -36 64 -33 88 11 79
17 -3 91 -9 165 -12z m1606 -281 c-12 -20 -14 -14 -5 12 4 9 9 14 11 11 3 -2
0 -13 -6 -23z m-381 -20 c0 -11 -58 -43 -78 -43 -12 0 -11 5 8 25 22 23 70 35
70 18z m-915 -853 c3 -5 -1 -10 -10 -10 -9 0 -13 5 -10 10 3 6 8 10 10 10 2 0
7 -4 10 -10z m240 -11 c3 -4 14 -5 24 -2 10 3 22 0 25 -6 5 -7 -4 -11 -22 -11
-49 0 -122 12 -122 20 0 10 89 9 95 -1z m-115 -18 c0 -10 56 -19 158 -24 39
-3 72 0 72 4 0 5 3 9 8 9 4 0 7 -17 7 -38 0 -36 -1 -37 -33 -34 -18 2 -54 13
-80 24 -46 21 -133 27 -215 16 -43 -6 -48 -2 -36 30 7 19 15 22 64 22 30 0 55
-4 55 -9z m205 -1 c3 -5 -1 -10 -10 -10 -9 0 -13 5 -10 10 3 6 8 10 10 10 2 0
7 -4 10 -10z m-358 -32 c-3 -8 -6 -5 -6 6 -1 11 2 17 5 13 3 -3 4 -12 1 -19z
m461 -30 c-4 -28 -19 -27 -30 1 -6 17 -3 21 13 21 15 0 20 -5 17 -22z m-348
-8 c0 -5 -2 -10 -4 -10 -3 0 -8 5 -11 10 -3 6 -1 10 4 10 6 0 11 -4 11 -10z
m763 3 c3 -5 8 -24 12 -43 l6 -35 -22 35 c-12 19 -27 38 -33 42 -6 5 -2 8 11
8 12 0 24 -3 26 -7z m-655 -9 c39 -11 24 -24 -28 -24 -27 0 -50 4 -50 9 0 18
38 25 78 15z m-278 -48 c0 -11 -19 -15 -25 -6 -3 5 1 10 9 10 9 0 16 -2 16 -4z
m685 -16 c-3 -5 -10 -10 -16 -10 -5 0 -9 5 -9 10 0 6 7 10 16 10 8 0 12 -4 9
-10z m-85 -20 c0 -5 -6 -10 -14 -10 -8 0 -18 5 -21 10 -3 6 3 10 14 10 12 0
21 -4 21 -10z m-620 -4 c0 -2 3 -12 6 -21 6 -15 4 -15 -15 -4 -25 16 -27 29
-6 29 8 0 15 -2 15 -4z m65 -16 c3 -5 1 -10 -4 -10 -6 0 -11 5 -11 10 0 6 2
10 4 10 3 0 8 -4 11 -10z m35 0 c0 -5 -2 -10 -4 -10 -3 0 -8 5 -11 10 -3 6 -1
10 4 10 6 0 11 -4 11 -10z m45 -76 c31 -33 31 -36 1 -24 -34 13 -66 33 -66 42
0 18 43 6 65 -18z m985 -81 c-2 -28 -29 -108 -36 -107 -11 1 -30 39 -39 76 -6
24 -4 27 27 31 18 2 36 5 41 5 4 1 7 -1 7 -5z m50 -213 c0 -13 -1 -13 -10 0
-5 8 -10 22 -10 30 0 13 1 13 10 0 5 -8 10 -22 10 -30z m128 -538 l-1 -47 -13
44 c-13 44 -11 66 6 56 5 -3 9 -27 8 -53z m9 -214 c-3 -8 -6 -5 -6 6 -1 11 2
17 5 13 3 -3 4 -12 1 -19z"/>
<path d="M542 5599 c2 -6 8 -10 13 -10 5 0 11 4 13 10 2 6 -4 11 -13 11 -9 0
-15 -5 -13 -11z"/>
<path d="M514 5335 c-9 -23 3 -45 25 -45 25 0 34 14 26 40 -7 23 -43 27 -51 5z"/>
<path d="M0 3440 c0 -6 22 -10 49 -10 34 0 56 -6 75 -21 30 -23 62 -22 131 4
25 10 34 17 25 20 -31 11 -280 16 -280 7z"/>
<path d="M480 3410 c0 -5 35 -8 80 -7 44 1 80 5 80 9 0 4 -36 8 -80 8 -44 0
-80 -4 -80 -10z"/>
<path d="M666 3400 c-12 -4 -8 -10 19 -24 34 -18 36 -18 55 -1 11 10 17 21 15
25 -6 9 -64 9 -89 0z"/>
<path d="M160 3364 c0 -8 5 -12 10 -9 6 3 10 10 10 16 0 5 -4 9 -10 9 -5 0
-10 -7 -10 -16z"/>
<path d="M3122 3340 c-16 -26 -17 -25 18 -26 33 -1 36 3 16 29 -17 21 -18 21
-34 -3z"/>
<path d="M137 3313 c-12 -11 -8 -23 8 -23 8 0 15 -4 15 -10 0 -13 -23 -13 -37
1 -14 14 -123 25 -123 11 0 -14 25 -22 73 -22 31 0 49 -7 70 -25 27 -26 27
-26 79 -10 28 8 62 15 75 15 16 0 23 6 23 19 0 23 -26 31 -102 31 -32 0 -58 5
-58 10 0 11 -13 13 -23 3z"/>
<path d="M747 3246 c-8 -8 -17 -12 -21 -9 -3 4 -6 2 -6 -4 0 -13 67 -21 101
-13 13 3 24 12 24 20 0 21 -78 26 -98 6z"/>
<path d="M4000 3191 c0 -16 10 -20 63 -25 34 -3 101 -4 149 -2 48 3 112 1 143
-3 31 -4 58 -5 60 -1 10 15 -25 32 -62 29 -21 -1 -58 1 -83 4 -25 3 -96 9
-157 12 -106 5 -113 4 -113 -14z"/>
<path d="M120 3141 c-19 -9 -48 -28 -65 -43 -16 -16 -36 -28 -42 -28 -7 0 -13
-11 -13 -25 0 -30 5 -31 61 -5 24 11 54 20 67 20 30 0 63 35 55 57 -14 36 -27
41 -63 24z"/>
<path d="M720 3080 c0 -6 -12 -15 -26 -20 -34 -13 -26 -34 16 -38 25 -3 39 3
55 20 12 13 20 29 17 36 -4 14 -62 16 -62 2z"/>
<path d="M4102 3052 c-13 -4 -23 -10 -23 -14 1 -5 1 -17 1 -27 0 -18 8 -19
143 -19 89 1 151 -3 164 -11 28 -14 166 -15 141 0 -9 5 -15 16 -12 23 4 9 -4
16 -23 20 -44 10 -134 10 -142 0 -10 -15 -131 -16 -131 -1 0 7 -18 18 -40 25
-43 13 -44 13 -78 4z m328 -62 c-19 -13 -30 -13 -30 0 0 6 10 10 23 10 18 0
19 -2 7 -10z"/>
<path d="M110 2881 c-14 -15 -34 -32 -45 -38 -32 -18 -11 -25 36 -13 56 15 89
38 89 61 0 29 -50 22 -80 -10z"/>
<path d="M3899 2882 c-13 -11 -44 -26 -69 -35 -25 -8 -108 -39 -185 -67 -77
-29 -194 -69 -260 -90 -66 -22 -114 -39 -107 -39 9 -1 11 -9 8 -23 -3 -13 -3
-17 0 -10 14 30 71 7 133 -54 36 -36 111 -134 111 -146 0 -5 -19 2 -42 15 -42
24 -44 24 -73 8 -40 -23 -43 -54 -9 -86 27 -25 27 -26 7 -31 -12 -3 -24 -12
-27 -20 -10 -25 15 -72 44 -84 24 -10 31 -21 41 -69 7 -31 12 -60 10 -65 -1
-5 4 -4 12 3 8 6 13 21 10 31 -3 11 0 20 6 20 6 0 11 9 11 20 0 17 5 20 28 17
26 -3 27 -7 32 -67 l5 -64 80 -13 c129 -22 128 -22 140 72 l10 80 60 3 c67 4
83 12 87 50 2 19 8 26 21 24 9 -2 17 2 17 8 0 5 -6 10 -13 10 -7 0 -18 10 -26
21 -11 19 -10 24 14 46 18 17 25 33 23 51 -3 26 -5 27 -98 35 -52 4 -98 11
-103 16 -15 15 -27 85 -17 95 6 6 10 45 10 88 0 117 15 175 52 194 16 8 45 16
63 17 41 3 49 10 40 36 -8 26 -16 26 -46 3z"/>
<path d="M804 2841 c-21 -14 -43 -32 -47 -38 -4 -7 -16 -13 -25 -14 -12 0 -10
-3 6 -10 25 -10 21 -29 -6 -29 -11 0 -18 -8 -19 -21 -2 -16 3 -20 25 -17 21 2
29 11 37 36 6 21 15 32 28 32 24 0 77 50 77 72 0 23 -29 19 -76 -11z"/>
<path d="M4220 2840 c0 -5 5 -10 10 -10 6 0 10 5 10 10 0 6 -4 10 -10 10 -5 0
-10 -4 -10 -10z"/>
<path d="M4568 2823 c6 -2 18 -2 25 0 6 3 1 5 -13 5 -14 0 -19 -2 -12 -5z"/>
<path d="M0 2790 c0 -28 2 -29 20 -18 16 11 17 14 5 21 -9 4 -13 12 -10 18 4
5 1 9 -4 9 -6 0 -11 -14 -11 -30z"/>
<path d="M1538 2769 c-10 -10 -18 -21 -18 -24 0 -3 -10 -16 -22 -31 -29 -33
-41 -64 -25 -64 11 1 107 120 107 134 0 12 -25 4 -42 -15z"/>
<path d="M4538 2763 c7 -3 16 -2 19 1 4 3 -2 6 -13 5 -11 0 -14 -3 -6 -6z"/>
<path d="M471 2582 c-123 -107 -171 -158 -174 -182 -4 -43 25 -33 98 32 141
127 176 164 169 182 -10 27 -36 18 -93 -32z"/>
<path d="M1676 2483 c-19 -27 -41 -59 -48 -73 -7 -14 -20 -37 -30 -52 -22 -32
-24 -78 -4 -78 8 0 29 24 46 53 17 28 44 72 60 97 62 97 41 142 -24 53z"/>
<path d="M3318 2308 c4 -69 8 -87 15 -77 7 7 -5 149 -12 149 -4 0 -5 -33 -3
-72z"/>
<path d="M4583 1704 c-6 -18 -6 -20 66 -223 28 -79 55 -149 61 -156 19 -23 46
-25 525 -55 83 -5 185 -12 228 -16 67 -6 77 -5 77 9 0 16 -31 77 -77 149 -12
21 -23 40 -23 42 0 3 -13 24 -28 48 -16 24 -39 64 -53 91 -16 31 -35 52 -57
63 -42 20 -53 11 -20 -15 25 -20 113 -164 156 -255 35 -75 31 -81 -67 -84 -50
-2 -97 2 -115 9 -19 8 -113 15 -238 18 -189 6 -209 8 -235 27 -26 20 -36 41
-119 254 -18 49 -17 67 6 83 20 14 20 15 -11 21 -50 10 -69 7 -76 -10z"/>
<path d="M440 1489 c0 -5 5 -7 10 -4 6 3 10 8 10 11 0 2 -4 4 -10 4 -5 0 -10
-5 -10 -11z"/>
<path d="M405 1449 c-11 -16 -1 -19 13 -3 7 8 8 14 3 14 -5 0 -13 -5 -16 -11z"/>
<path d="M375 1410 c-3 -6 1 -7 9 -4 18 7 21 14 7 14 -6 0 -13 -4 -16 -10z"/>
<path d="M333 1360 c-13 -15 -23 -34 -23 -42 0 -13 31 20 51 55 16 27 -4 19
-28 -13z"/>
<path d="M2155 1306 c-40 -11 -75 -37 -75 -56 0 -5 -6 -10 -14 -10 -8 0 -17
-9 -21 -19 -3 -11 -14 -23 -25 -26 -10 -3 -21 -13 -25 -22 -5 -15 -4 -15 13 0
23 21 32 22 32 2 0 -7 -8 -18 -17 -24 -21 -11 -11 -25 20 -28 12 -1 45 -6 72
-11 156 -29 257 -43 262 -38 4 3 -4 15 -17 26 -18 16 -21 23 -12 32 7 7 12 16
12 20 0 11 -44 10 -55 -1 -6 -4 -23 -11 -40 -15 -30 -6 -30 -6 -9 11 12 10 25
31 28 47 7 29 7 29 -31 23 -26 -5 -33 -3 -23 3 8 5 22 10 31 10 13 0 17 9 16
40 -1 33 -4 39 -16 34 -9 -4 -27 -9 -41 -11 -24 -4 -24 -4 -6 11 20 16 20 16
0 15 -10 -1 -37 -7 -59 -13z"/>
<path d="M264 1277 c-11 -12 -34 -43 -51 -67 -30 -44 -100 -129 -146 -180 -30
-33 -71 -100 -64 -106 3 -3 18 12 33 33 31 40 62 78 80 97 6 6 15 18 20 27 5
9 23 34 40 55 135 167 133 164 116 164 -5 0 -17 -10 -28 -23z"/>
<path d="M1600 1215 c-74 -38 -116 -78 -155 -149 -33 -62 -28 -104 18 -145 69
-63 80 -70 122 -77 57 -8 85 2 85 29 0 14 13 31 37 47 45 31 103 91 103 107 0
7 9 17 20 23 19 10 19 11 -7 40 -24 27 -28 29 -43 15 -9 -8 -30 -15 -46 -15
-16 0 -42 -7 -57 -15 -16 -8 -43 -13 -60 -11 -29 3 -32 7 -30 37 1 18 6 35 12
37 9 3 44 50 75 100 11 18 -3 14 -74 -23z"/>
<path d="M1718 1230 c-22 -24 -3 -39 20 -16 11 10 13 19 6 26 -6 6 -15 3 -26
-10z"/>
<path d="M1952 1120 c-16 -26 -15 -30 6 -30 24 -1 92 -39 70 -40 -10 0 -18 -4
-18 -10 0 -6 25 -10 58 -9 31 0 51 3 44 6 -6 2 -10 9 -6 14 3 5 -3 9 -13 10
-12 1 -10 3 7 8 22 6 20 9 -28 24 -30 10 -63 15 -74 11 -12 -4 -18 -2 -14 4 3
5 0 15 -7 20 -9 8 -16 6 -25 -8z"/>
<path d="M3005 970 c3 -5 14 -10 23 -10 15 0 15 2 2 10 -20 13 -33 13 -25 0z"/>
<path d="M1780 922 c-14 -5 -45 -31 -38 -33 36 -8 49 -7 54 6 8 21 1 33 -16
27z"/>
<path d="M2996 871 c-4 -6 4 -15 16 -22 13 -7 30 -21 40 -31 23 -27 29 -9 10
27 -17 30 -55 45 -66 26z"/>
<path d="M3320 815 c0 -31 13 -45 41 -45 19 0 29 -5 29 -15 0 -8 7 -15 16 -15
12 0 14 5 9 18 -4 9 -10 27 -12 40 -3 12 -8 22 -12 23 -42 7 -71 5 -71 -6z"/>
<path d="M3405 719 c-4 -6 -5 -12 -2 -15 7 -7 37 7 37 17 0 13 -27 11 -35 -2z"/>
</g>
</svg>
